<?xml version="1.0" encoding="utf-8"?>
<!-- Generator: Adobe Illustrator 19.2.1, SVG Export Plug-In . SVG Version: 6.00 Build 0)  -->
<svg version="1.1" id="Layer_1" xmlns="http://www.w3.org/2000/svg" xmlns:xlink="http://www.w3.org/1999/xlink" x="0px" y="0px"
	 viewBox="0 0 500 500" style="enable-background:new 0 0 500 500;" xml:space="preserve">
<style type="text/css">
	.st0{fill:#F1F5F9;}
</style>
<path class="st0" d="M370.6,10.7H279h-20.1h-12.8h-14.8h-99.2c-34.5,0-62.4,31.5-62.4,70.3v333.3h17.6v77.9h54.2v-77.9H361v77.9
	h54.2v-77.9H433V81.1C433,42.2,405.1,10.7,370.6,10.7z M152.6,30.9h197.6v51.1H152.6V30.9z M123.5,108h255.9v159.5H123.5V108z
	 M147,385.3c-1.8,0-3.6-0.2-5.3-0.4v-0.2h-1.3c-15.7-3.2-27.5-17.3-27.5-34.3c0-19.3,15.3-35,34.1-35c18.8,0,34.1,15.7,34.1,35
	C181.1,369.7,165.8,385.3,147,385.3z M355.8,385.3c-18.8,0-34.1-15.7-34.1-35c0-19.3,15.3-35,34.1-35c18.8,0,34.1,15.7,34.1,35
	c0,17-11.8,31.2-27.5,34.3H361v0.3C359.3,385.2,357.6,385.3,355.8,385.3z M491.2,169.9v53.6c0,9.1-7.2,16.5-16.1,16.5h-12.5
	c-8.9,0-16.1-7.4-16.1-16.5v-53.6c0-9.1,7.2-16.5,16.1-16.5h12.5C484,153.4,491.2,160.8,491.2,169.9z M54.8,169.9v53.6
	c0,9.1-7.2,16.5-16.1,16.5H26.3c-8.9,0-16.1-7.4-16.1-16.5v-53.6c0-9.1,7.2-16.5,16.1-16.5h12.5C47.6,153.4,54.8,160.8,54.8,169.9z"
	/>
</svg>
