<?xml version="1.0" encoding="utf-8"?>
<!-- Generator: Adobe Illustrator 19.2.1, SVG Export Plug-In . SVG Version: 6.00 Build 0)  -->
<svg version="1.1" id="Layer_1" xmlns="http://www.w3.org/2000/svg" xmlns:xlink="http://www.w3.org/1999/xlink" x="0px" y="0px"
	 viewBox="0 0 600 600" style="enable-background:new 0 0 600 600;" xml:space="preserve">
<style type="text/css">
	.st0{fill:#DAE1E7;}
</style>
<g transform="translate(0.000000,600.000000) scale(0.100000,-0.100000)">
	<path class="st0" d="M1033,4403l-301-3l-6-38c-3-20-26-224-51-452s-48-430-51-447l-5-33H481H343l-12-112c-6-62-14-134-17-160l-6-48
		h141h141l-5-27c-3-16-16-138-30-273s-27-257-30-272l-4-28h285c219,0,286,3,289,13c2,6,17,140,34,297c62,589,121,1126,126,1158l6,32
		h127c237-1,283-31,290-195c5-114-19-248-55-299c-41-60-78-73-223-83l-125-8l-16-155c-9-85-15-158-12-162c7-13,463,2,548,18
		c169,33,283,119,355,268c44,92,64,163,85,303c51,339-25,548-238,653c-107,52-168,60-442,57C1434,4406,1199,4404,1033,4403z"/>
	<path class="st0" d="M2339,4403c0-5-10-96-22-203l-22-195l288-3c269-2,289-4,284-20c-4-14-365-952-521-1355c-25-66-46-121-46-123
		s132-4,293-4h292l296,748l297,747l210,3l210,2l79,198c43,108,80,200,81,205c2,4-384,7-857,7C2727,4410,2340,4407,2339,4403z"/>
	<path class="st0" d="M4017,4043c-350-882-595-1500-601-1521l-7-22l292,2l293,3l270,748l271,747h118h119l-6-47c-3-27-15-138-26-248
		s-23-215-26-232l-5-32l-157-3l-157-3l-17-150c-9-82-17-156-17-162c-1-10,36-13,154-13h155v-27c0-16-14-149-30-298
		c-17-148-30-270-30-272s128-3,284-3h285l6,43c3,23,14,139,25,257s22,234,25,258l6,42h130c71,0,129,1,129,3c8,41,35,319,31,322
		c-2,3-62,5-133,5h-129l6,48c9,76,85,881,85,903c0,19-12,19-598,19h-599L4017,4043z"/>
	<path class="st0" d="M5493,4334c-87-43-92-158-10-218c35-26,102-26,140-1c82,53,71,183-18,221C5561,4354,5533,4354,5493,4334z
		 M5588,4319c105-36,77-199-34-199c-57,0-93,31-101,86c-6,50,7,78,50,104C5540,4333,5546,4334,5588,4319z"/>
</g>
</svg>
